<?xml version="1.0" encoding="UTF-8" standalone="no"?><!DOCTYPE svg PUBLIC "-//W3C//DTD SVG 1.1//EN" "http://www.w3.org/Graphics/SVG/1.1/DTD/svg11.dtd"><svg width="100%" height="100%" viewBox="0 0 272 243" version="1.1" xmlns="http://www.w3.org/2000/svg" xmlns:xlink="http://www.w3.org/1999/xlink" xml:space="preserve" xmlns:serif="http://www.serif.com/" style="fill-rule:evenodd;clip-rule:evenodd;stroke-linejoin:round;stroke-miterlimit:1.41421;"><g><path d="M49,243l27,0l0,-50l53,-52l102,102l37,0l-120,-120.97l124,-121.178l-38,0l-185,181.148" style="fill:#fff;"/><path d="M26,243l-26,0l0,-181c0,-35.122 26.218,-62 55,-62l104,0c18.59,4.292 24.807,25.826 14,40l-147,140l0,63Zm122,-216l-89,0c-26.151,0 -33,16.968 -33,35l0,81.464l122,-116.464Z" style="fill:#fff;"/></g></svg>